<?xml version="1.0" encoding="UTF-8" standalone="no"?>
<svg
   xmlns:dc="http://purl.org/dc/elements/1.1/"
   xmlns:cc="http://creativecommons.org/ns#"
   xmlns:rdf="http://www.w3.org/1999/02/22-rdf-syntax-ns#"
   xmlns:svg="http://www.w3.org/2000/svg"
   xmlns="http://www.w3.org/2000/svg"
   width="106.00395mm"
   height="94.249153mm"
   viewBox="0 0 375.60455 333.95369"
   id="svg6855"
   version="1.1">
  <defs
     id="defs6857" />
  <metadata
     id="metadata6860">
    <rdf:RDF>
      <cc:Work
         rdf:about="">
        <dc:format>image/svg+xml</dc:format>
        <dc:type
           rdf:resource="http://purl.org/dc/dcmitype/StillImage" />
        <dc:title></dc:title>
      </cc:Work>
    </rdf:RDF>
  </metadata>
  <g
     id="layer1"
     transform="translate(28.421485,27.535152)">
    <g
       transform="translate(28.571421,-336.06433)"
       id="g6838"
       style="fill:#0060aa;fill-opacity:1">
      <path
         id="path6832"
         d="m -5.671421,365.86756 15.3,0 0,82.85606 -15.3,0 z m 30.617226,0 15.582774,0 0,36.53106 31.62066,-36.53106 19.85808,0 -28.028526,31.96416 30.249786,50.8919 -19.840233,0 -21.290682,-38.9112 -12.569085,13.63163 0,25.27957 -15.582774,0 z m 77.982775,41.24268 0,-41.24268 52.7305,0 0,13.64424 -37.43056,0 0,19.8 32.41106,0 -0.161,14.0276 -32.25,0 0,35.38422 -15.3,0 z m 68.1,0.51943 2.925,0.21248 c 3.72973,0.27094 11.21973,1.21376 15.71089,1.97768 28.2511,4.8053 51.4019,14.35674 67.50149,27.84941 2.83035,2.37206 9.86262,9.62178 9.86262,10.11704 l -96,0 z m 95.7,35.57095 c -3.7319,-4.34874 -10.63534,-10.19518 -16.95,-14.35477 -14.53964,-9.57752 -31.38966,-15.96756 -55.2,-20.93355 -1.88562,-0.39327 1.79725,-0.44117 36.075,-0.4692 l 38.1375,-0.0312 0,38.08053 c -0.0412,-0.0107 -0.99,-1.04202 -2.0625,-2.29179 z m -95.7,-78.45697 96.47016,0 c -0.64672,1.15563 -6.49177,6.88688 -9.61473,9.54759 -14.94542,12.73323 -35.59831,21.83826 -61.50734,27.11612 -7.6302,1.55433 -20.41539,3.30453 -24.13956,3.30453 l -1.20853,0 z m 28.53069,38.76685 c 24.19622,-5.30634 43.55089,-13.82233 58.16931,-25.59431 1.7325,-1.39515 4.93875,-4.36072 7.125,-6.59015 l 3.9375,-4.05352 0,37.43937 -37.2375,-0.0217 -37.275,-0.0217 5.28069,-1.15808 z"
         style="opacity:1;fill:#0060aa;fill-opacity:1" />
    </g>
  </g>
</svg>
